<svg width="683" height="130" viewBox="0 0 345.997 146.099" xmlns="http://www.w3.org/2000/svg"><g id="svgGroup" stroke-linecap="round" fill-rule="evenodd" font-size="9pt" stroke="#c73232" stroke-width="0.25mm" fill="#c73232" style="stroke:#c73232;stroke-width:0.25mm;fill:#c73232"><path d="M 336.232 67.482 L 336.232 77.736 L 269.923 77.736 L 269.923 144.142 L 257.911 144.142 L 257.911 1.955 L 345.997 1.955 L 345.997 12.209 L 269.923 12.209 L 269.923 67.482 L 336.232 67.482 Z M 234.962 1.955 L 234.962 12.209 L 186.232 12.209 L 186.232 144.142 L 174.22 144.142 L 174.22 12.209 L 125.587 12.209 L 125.587 1.955 L 234.962 1.955 Z M 110.841 63.771 L 110.841 80.763 Q 110.841 100.392 104.054 115.236 Q 97.267 130.08 84.669 138.088 A 51.386 51.386 0 0 1 61.619 145.814 A 63.835 63.835 0 0 1 55.568 146.095 A 56.409 56.409 0 0 1 35.934 142.805 A 49.461 49.461 0 0 1 15.333 128.273 Q 0.001 110.451 0.001 80.177 L 0.001 65.529 Q 0.001 46.095 6.886 31.105 Q 13.771 16.115 26.368 8.058 A 51.318 51.318 0 0 1 50.338 0.198 A 63.414 63.414 0 0 1 55.372 0.002 Q 71.779 0.002 84.327 7.912 A 51.262 51.262 0 0 1 102.38 27.623 A 62.33 62.33 0 0 1 103.712 30.275 A 72.625 72.625 0 0 1 109.614 49.594 A 96.05 96.05 0 0 1 110.841 63.771 Z M 98.829 80.373 L 98.829 65.334 A 91.917 91.917 0 0 0 97.578 49.677 Q 96.067 40.947 92.731 33.964 A 45.745 45.745 0 0 0 87.208 25.099 A 37.671 37.671 0 0 0 59.691 10.723 A 52.484 52.484 0 0 0 55.372 10.548 A 43.386 43.386 0 0 0 40.337 13.052 A 37.715 37.715 0 0 0 23.78 25.148 A 48.952 48.952 0 0 0 15.153 41.967 Q 12.013 52.399 12.013 65.92 L 12.013 80.763 A 88.49 88.49 0 0 0 13.398 96.912 Q 16.041 111.142 23.732 120.851 A 37.71 37.71 0 0 0 51.267 135.469 A 51.192 51.192 0 0 0 55.568 135.646 A 45.717 45.717 0 0 0 69.612 133.593 A 36.291 36.291 0 0 0 87.404 121.047 Q 96.743 109.113 98.448 89.513 A 105.51 105.51 0 0 0 98.829 80.373 Z" vector-effect="non-scaling-stroke"/></g></svg>